<svg xmlns="http://www.w3.org/2000/svg" width="24" height="24" viewBox="0 0 24 24" fill="#000000">
  <path d="M21 16.5c-1.3 0-2.6-.4-3.7-1.2l-2.4-1.7c-.5-.3-.7-.9-.5-1.4.3-.5.9-.7 1.4-.5l2.4 1.7c.8.6 1.7.9 2.7.9 1.2 0 2.3-.5 3.2-1.3.8-.8 1.2-1.9 1.2-3.1 0-1.2-.4-2.3-1.2-3.1-.9-.8-2-1.3-3.2-1.3-1.3 0-2.6.4-3.7 1.2l-2.4 1.7c-.5.3-1.1.2-1.4-.3-.3-.5-.2-1.1.3-1.4l2.4-1.7c1.1-.8 2.4-1.2 3.7-1.2 2.1 0 4.1.8 5.6 2.3 1.5 1.5 2.3 3.5 2.3 5.6 0 2.1-.8 4.1-2.3 5.6-1.5 1.5-3.5 2.3-5.6 2.3zm-8.5 1.7c-2.5 0-4.9-.6-7.1-1.7-1.1-.5-1.8-1.6-1.8-2.9v-4.4c0-1.2.7-2.4 1.8-2.9 2.2-1.1 4.6-1.7 7.1-1.7s4.9.6 7.1 1.7c1.1.5 1.8 1.6 1.8 2.9v4.4c0 1.2-.7 2.4-1.8 2.9-2.2 1.1-4.6 1.7-7.1 1.7z"/>
</svg>
